<?xml version="1.0" encoding="UTF-8"?>
<svg version="1.1" viewBox="0 0 1024 1024" width="1024" height="1024" xmlns="http://www.w3.org/2000/svg">
<path transform="translate(186,205)" d="m0 0h29l27 1 32 3 14 1 36 5 23 3 45 9 35 9 30 10 21 9 14 7 11 7 7 5 6-1 10-7 16-9 20-9 36-12 38-10 42-8 25-4 32-4 41-3 8-1 31-1h22l7 4 3 5 1 4v44h36l10 4 8 7 4 7 1 4 1 194v283l-1 13-4 10-8 8-8 5-9 2-298 1-4 11-7 10-9 7-10 5-12 3h-53l-13-4-11-6-9-9-5-9-3-9h-298l-9-2-9-6-7-8-4-10v-488l4-10 5-6 8-5 6-2h36v-45l4-8z" fill="#1894A1"/>
<path transform="translate(814,230)" d="m0 0h8v472l-51 3-42 4-37 5-34 6-31 7-28 8-24 8-26 11-22 11h-4l1-466 7-6 13-8 16-8 19-8 30-10 27-7 33-7 36-6 42-5 41-3z" fill="#FCF8EC"/>
<path transform="translate(203,230)" d="m0 0 43 2 44 4 44 6 44 8 40 10 33 11 18 8 17 9 12 9 1 1v467l-5-2-27-13-29-11-27-8-28-7-35-7-47-7-38-4-43-3-17-1-1-84v-387z" fill="#FDF8EC"/>
<path transform="translate(721,359)" d="m0 0h13l16 3 13 5 9 6 2 4-1 6-9 4-17 6-14 8-10 8-3 3h-2l-2 4v1l7-1h16l14 3 13 5 11 7 12 12 8 14 4 11 1 7v20l-3 7-3 2h-8l-13-11-13-8-14-6-19-5-24-3 8 16 7 19 6 23 3 16 2 25v27l-1 16 10 3 14 6 18 11 12 9 5 4 3 5-1 7-4 4h-9l-14-11-14-8-16-7-21-6-13-2-14-1h-20l-22 3-19 5-16 7-13 7-13 10-4 3h-9l-4-4-1-7 4-6 11-9 17-10 25-11 14-5 23-4h9l2-10 4-18 2-16v-23l-3-23-5-19-6-16v-2l-11 8-12 10-5 5-8 9-9 12-9 17-7 22-4 4-2 1h-6l-5-3-8-12-4-11-3-14v-21l3-15 9-17 8-10 10-9 6-4-8-3-16-3h-16l-6 1h-11l-4-5 1-8 7-9 7-8 14-10 11-5 13-4 7-1h15l14 3 12 5 8 6 7 7 7-19 7-11 9-10 7-6 12-7 13-4z" fill="#1794A1"/>
<path transform="translate(848,288)" d="m0 0h33l1 4v475l-4 5-2 1h-297v-4l25-9 23-7 33-8 33-6 27-4 53-5 35-2 23-1 9-1 5-4 2-12z" fill="#11C3E0"/>
<path transform="translate(143,288)" d="m0 0h33l1 409 1 22 3 5 4 2 65 4 32 3 31 4 36 6 37 8 36 10 23 8 1 4h-298l-5-4-1-3v-473z" fill="#11C3E0"/>
<path transform="translate(723,267)" d="m0 0h15l11 3 10 5 9 7 8 10 5 11 2 7v20l-4 12-6 10-5 6-10 7-17-4-7-1h-18l-5-3-6-11-9-7-9-3-7-1-2-6v-19l4-13 7-11 8-8 10-6 11-4z" fill="#FED366"/>
<path transform="translate(625,305)" d="m0 0h14l13 4 11 8 7 9 3 9h14l11 4 8 7 5 9v2l5 2-1 2-15 5-14 9-4 2h-122l-3-3-2-4v-14l5-10 7-7 11-4 14-1 4-9 6-8 9-7 10-4z" fill="#93DFE7"/>
<path transform="translate(666,626)" d="m0 0h20l21 2 21 5 16 6 17 9 12 9 5 5-1 1h-199l5-5 10-8 14-8 15-7 17-5 17-3z" fill="#FCD996"/>
<path transform="translate(266,367)" d="m0 0 39 4 115 13 12 2 6 5 2 5-1 8-5 5-4 2-16-1-113-13-34-4-7-3-4-5v-10l5-6z" fill="#1794A1"/>
<path transform="translate(264,457)" d="m0 0h14l144 16 10 2 6 5 1 2v10l-5 6-8 2-82-9-79-9-6-4-3-7 1-7 5-6z" fill="#1794A1"/>
<path transform="translate(467,778)" d="m0 0 9 3 11 6 5 4 8 3h15l15-1 6-3 4-4 17-8v13l-5 10-7 6-7 3-6 1h-41l-9-2-6-4-6-7-3-8z" fill="#DFA058"/>
<path transform="translate(638,459)" d="m0 0h13l-2 4-11 9-17 16-11 12-9 13-6 10-4 10h-2l-2-9v-15l3-12 5-10 8-10 8-7 15-8z" fill="#84CE7F"/>
<path transform="translate(719,436)" d="m0 0h21l13 4 10 5 10 9 4 5 4 8 1 7-14-8-11-5-18-5-28-5-16-2-2-1v-2l12-6z" fill="#84CE80"/>
<path transform="translate(601,416)" d="m0 0h20l10 3 9 5 10 9 7 11-3 1-35-11-18-4-22-3 4-4 8-4z" fill="#84CE80"/>
<path transform="translate(726,378)" d="m0 0h12l-3 3-14 8-14 11-10 9-10 10-8 11h-2l2-12 5-12 7-9 7-7 9-6 14-5z" fill="#84CE80"/>
<path transform="translate(703,578)" d="m0 0h9v15l-1 14-23-1 1-8 2-8 1-9 5-2z" fill="#DEA159"/>
<path transform="translate(703,526)" d="m0 0h3l5 25v11l-17 2v-35z" fill="#DFA058"/>
<path transform="translate(682,472)" d="m0 0 3 1 9 16 7 19-3 3-7 2-7-26-4-10v-4z" fill="#DCA259"/>
</svg>
