
<svg version="1.1" id="Capa_1" xmlns="http://www.w3.org/2000/svg" xmlns:xlink="http://www.w3.org/1999/xlink" x="0px" y="0px"
     viewBox="0 0 496 496" style="enable-background:new 0 0 496 496;" xml:space="preserve">
<rect x="112" y="8" style="fill:#ECECEC;" width="272" height="176"/>
    <path style="fill:#B6C1CE;" d="M384,155.984c-21.032-3.288-41.832-8.44-59.52-15.064c-2.816-1.056-5.96-2.32-9.368-3.696
	C297.056,129.952,272.328,120,248,120s-49.056,9.952-67.112,17.216c-3.408,1.376-6.552,2.64-9.384,3.704
	c-17.68,6.624-38.48,11.768-59.504,15.064V184h272V155.984z"/>
    <path style="fill:#D3A06C;" d="M316.056,163.392C299.512,157.192,272,144,248,144s-51.512,13.192-68.056,19.392
	C145.328,176.368,100.96,184,64,184v136h368V184C395.04,184,350.672,176.368,316.056,163.392z"/>
    <rect x="64" y="288" style="fill:#B27946;" width="368" height="32"/>
    <path style="fill:#FCD770;" d="M408,312H88c-30.928,0-56,25.072-56,56c0,4.416,3.584,8,8,8h16h384h16c4.416,0,8-3.584,8-8
	C464,337.072,438.928,312,408,312z"/>
    <g>
	<polygon style="fill:#8C95A4;" points="72,488 120,488 128,456 64,456 	"/>
        <polygon style="fill:#8C95A4;" points="368,456 376,488 424,488 432,456 	"/>
</g>
    <path style="fill:#D3A06C;" d="M440,408v-32c0-17.672-14.328-32-32-32H88c-17.672,0-32,14.328-32,32v32h-8v48h400v-48H440z"/>
    <rect x="56" y="384" style="fill:#B27946;" width="384" height="16"/>
    <g>
	<path style="fill:#ECECEC;" d="M219.056,235.056c-2.008,0-3.992,0.464-5.792,1.368L200,243.056c0,0-16-8-32-8s-32,8-32,8
		l-13.264-6.632c-1.8-0.896-3.776-1.368-5.792-1.368c-7.152,0-12.944,5.792-12.944,12.944v64h128v-64
		C232,240.848,226.208,235.056,219.056,235.056z"/>
        <path style="fill:#ECECEC;" d="M379.056,235.056c-2.008,0-3.992,0.464-5.792,1.368L360,243.056c0,0-16-8-32-8s-32,8-32,8
		l-13.264-6.632c-1.8-0.896-3.776-1.368-5.792-1.368c-7.152,0-12.944,5.792-12.944,12.944v64h128v-64
		C392,240.848,386.208,235.056,379.056,235.056z"/>
</g>
    <g>
	<circle style="fill:#FCD770;" cx="432" cy="144" r="16"/>
        <circle style="fill:#FCD770;" cx="64" cy="144" r="16"/>
        <polygon style="fill:#FCD770;" points="256,72 272,112 224,112 240,72 	"/>
        <circle style="fill:#FCD770;" cx="320" cy="88" r="16"/>
        <circle style="fill:#FCD770;" cx="176" cy="88" r="16"/>
</g>
    <g>
	<rect x="264" y="288" style="fill:#B6C1CE;" width="128" height="24"/>
        <rect x="104" y="288" style="fill:#B6C1CE;" width="128" height="24"/>
</g>
    <path d="M392,173.28V16h104V0H0v16h104v157.28c-10.864,1.384-21.608,2.216-32,2.52v-9.272c9.288-3.312,16-12.112,16-22.528
	c0-13.232-10.768-24-24-24s-24,10.768-24,24c0,10.416,6.712,19.216,16,22.528v146.136C36.904,323.744,24,344.376,24,368
	c0,8.824,7.176,16,16,16h8v16h-8v64h17.752l7.992,32h60.496l7.992-32h227.512l7.992,32h60.496l7.992-32H456v-64h-8v-16h8
	c8.824,0,16-7.176,16-16c0-23.624-12.904-44.256-32-55.344V166.528c9.288-3.312,16-12.112,16-22.528c0-13.232-10.768-24-24-24
	s-24,10.768-24,24c0,10.416,6.712,19.216,16,22.528v9.272C413.608,175.496,402.864,174.664,392,173.28z M120,16h120v16h-72v33.472
	c-9.288,3.312-16,12.112-16,22.528c0,13.232,10.768,24,24,24s24-10.768,24-24c0-10.416-6.712-19.216-16-22.528V48h56v16h-5.416
	l-22.4,56h71.624l-22.4-56H256V48h56v17.472c-9.288,3.312-16,12.112-16,22.528c0,13.232,10.768,24,24,24s24-10.768,24-24
	c0-10.416-6.712-19.216-16-22.528V32h-72V16h120v154.904c-20.232-3.48-40.056-8.6-57.136-15c-2.904-1.088-6.168-2.4-9.688-3.824
	C292.328,145.296,269.248,136,248,136s-44.328,9.296-61.176,16.08c-3.52,1.416-6.784,2.728-9.688,3.824
	c-17.08,6.4-36.904,11.52-57.136,15V16z M184,88c0,4.408-3.584,8-8,8s-8-3.592-8-8s3.584-8,8-8S184,83.592,184,88z M245.416,80
	h5.168l9.6,24h-24.376L245.416,80z M328,88c0,4.408-3.584,8-8,8s-8-3.592-8-8s3.584-8,8-8S328,83.592,328,88z M64,136
	c4.416,0,8,3.592,8,8s-3.584,8-8,8s-8-3.592-8-8S59.584,136,64,136z M113.752,480H78.248l-4.008-16h43.512L113.752,480z
	 M417.752,480h-35.504l-4.008-16h43.512L417.752,480z M416,400v16h24v32H56v-32h344v-16H64v-24c0-13.232,10.768-24,24-24h320
	c13.232,0,24,10.768,24,24v24H416z M456,368h-8.808c-3.72-18.232-19.872-32-39.192-32H88c-19.312,0-35.472,13.768-39.192,32H40
	c0-26.472,21.528-48,48-48h320C434.472,320,456,341.528,456,368z M224,304H112v-56c0-3.496,4.048-6,7.16-4.424l16.84,8.416
	l3.568-1.776c0.144-0.072,14.584-7.16,28.432-7.16s28.288,7.088,28.432,7.16l3.584,1.776l16.832-8.416
	C219.96,242.008,224,244.512,224,248V304z M384,304H272v-56c0-3.496,4.048-6,7.16-4.424l16.84,8.416l3.568-1.776
	c0.144-0.072,14.584-7.16,28.432-7.16s28.288,7.088,28.432,7.16l3.584,1.776l16.832-8.416C379.96,242.008,384,244.512,384,248V304z
	 M408,304h-8v-56c0-11.552-9.4-20.944-20.944-20.944c-3.232,0-6.48,0.768-9.368,2.208l-9.872,4.936
	c-6.12-2.576-18.832-7.152-31.816-7.152s-25.696,4.576-31.816,7.152l-9.872-4.936c-2.888-1.448-6.136-2.208-9.368-2.208
	C265.4,227.056,256,236.448,256,248v56h-16v-56c0-11.552-9.4-20.944-20.944-20.944c-3.232,0-6.48,0.768-9.368,2.208l-9.872,4.936
	c-6.12-2.576-18.832-7.152-31.816-7.152s-25.696,4.576-31.816,7.152l-9.872-4.936c-2.888-1.448-6.136-2.208-9.368-2.208
	C105.4,227.056,96,236.448,96,248v56h-8c-5.536,0-10.872,0.776-16,2.104V191.8c36.696-1.008,78.36-8.768,110.744-20.912
	c3.024-1.136,6.4-2.496,10.056-3.968C208.432,160.624,229.848,152,248,152s39.568,8.624,55.2,14.92
	c3.656,1.472,7.032,2.832,10.056,3.968C345.64,183.024,387.304,190.792,424,191.8v114.312C418.872,304.776,413.536,304,408,304z
	 M432,136c4.416,0,8,3.592,8,8s-3.584,8-8,8s-8-3.592-8-8S427.584,136,432,136z"/>
    <g>
</g>
    <g>
</g>
    <g>
</g>
    <g>
</g>
    <g>
</g>
    <g>
</g>
    <g>
</g>
    <g>
</g>
    <g>
</g>
    <g>
</g>
    <g>
</g>
    <g>
</g>
    <g>
</g>
    <g>
</g>
    <g>
</g>
</svg>
