
<svg id="Layer_5" enable-background="new 0 0 62 62" height="512" viewBox="0 0 62 62" width="512" xmlns="http://www.w3.org/2000/svg"><g><g><g><path d="m53 8.24v8.76h-7l2-8h-3v-.76c0-1.37.77-2.63 2-3.24v-4h4v4c1.23.61 2 1.87 2 3.24z" fill="#69d6f4"/></g><g><path d="m48 9-2 8h-4l-2-8h5z" fill="#e6e9ed"/></g><g><path d="m59 20c0 .55-.45 1-1 1h-1-6-8-6-1c-.55 0-1-.45-1-1v-2c0-.55.45-1 1-1h6 4 7 5c.55 0 1 .45 1 1z" fill="#cf9e76"/></g><g><path d="m37 21v18h14c1.1 0 2 .9 2 2h4v-20z" fill="#dfb28b"/></g><g><path d="m43 21h8v4h-8z" fill="#e6e9ed"/></g><g><path d="m43 29h8v4h-8z" fill="#e6e9ed"/></g><g><path d="m61 45v8h-2-52v-8c0-2.21 1.79-4 4-4h7 17v5c0 .83.34 1.58.88 2.12s1.29.88 2.12.88c1.66 0 3-1.34 3-3 0 .83.34 1.58.88 2.12s1.29.88 2.12.88c1.66 0 3-1.34 3-3 0 .83.34 1.58.88 2.12s1.29.88 2.12.88c1.66 0 3-1.34 3-3v-5h4c2.21 0 4 1.79 4 4z" fill="#ccd1d9"/></g><g><path d="m53 41v5c0 1.66-1.34 3-3 3-.83 0-1.58-.34-2.12-.88s-.88-1.29-.88-2.12c0 1.66-1.34 3-3 3-.83 0-1.58-.34-2.12-.88s-.88-1.29-.88-2.12c0 1.66-1.34 3-3 3-.83 0-1.58-.34-2.12-.88s-.88-1.29-.88-2.12v-5c0-1.1.9-2 2-2h14c1.1 0 2 .9 2 2z" fill="#fcd770"/></g><g><path d="m18 35c1.66 0 3 1.34 3 3 0 .83-.34 1.58-.88 2.12s-1.29.88-2.12.88h-7-1c-1.66 0-3-1.34-3-3 0-.83.34-1.58.88-2.12s1.29-.88 2.12-.88z" fill="#fcd770"/></g><g><path d="m7 38c0 1.66 1.34 3 3 3h1c-2.21 0-4 1.79-4 4v8h52v6c0 1.1-.9 2-2 2h-2c-1.1 0-2-.9-2-2v-2h-46v2c0 1.1-.9 2-2 2h-2c-1.1 0-2-.9-2-2v-32h2c2.21 0 4 1.79 4 4z" fill="#d3a06c"/></g><g><path d="m5 15v2c0 1.1-.9 2-2 2h-2v-8h2c1.1 0 2 .9 2 2z" fill="#cf9e76"/></g><g><path d="m17 11v8h-8v-4-4c0-1.1.9-2 2-2h4c1.1 0 2 .9 2 2z" fill="#ccd1d9"/></g></g><g><path d="m6 17v-1h2v4h10v-9c0-1.654-1.346-3-3-3h-4c-1.654 0-3 1.346-3 3v3h-2v-1c0-1.654-1.346-3-3-3h-3v10h3c1.654 0 3-1.346 3-3zm4-6c0-.551.449-1 1-1h4c.551 0 1 .449 1 1v7h-6zm-8 1h1c.551 0 1 .449 1 1v4c0 .551-.449 1-1 1h-1z"/><path d="m12 0h2v6h-2z"/><path d="m15 3h5v2h-5z" transform="matrix(.6 -.8 .8 .6 3.798 15.597)"/><path d="m7.5 1.5h2v5h-2z" transform="matrix(.8 -.6 .6 .8 -.7 5.9)"/><path d="m62 45c0-2.414-1.721-4.434-4-4.899v-18.101c1.103 0 2-.897 2-2v-2c0-1.103-.897-2-2-2h-4v-7.764c0-1.544-.752-2.951-2-3.805v-2.431h2v-2h-10v2h2v2.431c-1.183.81-1.913 2.119-1.986 3.569h-5.295l2 8h-4.719c-1.103 0-2 .897-2 2v2c0 1.103.897 2 2 2v16.184c-.847.302-1.514.969-1.816 1.816h-12.74c.344-.591.556-1.268.556-2 0-2.206-1.794-4-4-4h-8c-.732 0-1.409.212-2 .556v-3.556c0-2.757-2.243-5-5-5h-3v33c0 1.654 1.346 3 3 3h2c1.654 0 3-1.346 3-3v-1h44v1c0 1.654 1.346 3 3 3h2c1.654 0 3-1.346 3-3v-5h2zm-8.184-5c-.414-1.161-1.514-2-2.816-2h-13v-8h4v4h10v-4h4v10zm-9.816-10h6v2h-6zm3.447-24.105.553-.277v-3.618h2v3.618l.553.276c.892.447 1.447 1.344 1.447 2.342v7.764h-4.719l2-8h-3.248c.081-.9.594-1.695 1.414-2.105zm-6.166 4.105h5.438l-1.5 6h-2.438zm-5.281 8h22l.001 2h-.001-22zm8 4h6v2h-6zm-2 0v4h10v-4h4v6h-18v-6zm-6 19c0-.552.449-1 1-1h14c.551 0 1 .448 1 1v5c0 1.103-.897 2-2 2s-2-.897-2-2h-2c0 1.103-.897 2-2 2s-2-.897-2-2h-2c0 1.103-.897 2-2 2s-2-.897-2-2zm-26-5h8c1.103 0 2 .897 2 2s-.897 2-2 2h-7-1c-1.103 0-2-.897-2-2s.897-2 2-2zm48 23c0 .552-.449 1-1 1h-2c-.551 0-1-.448-1-1v-3h-48v3c0 .552-.449 1-1 1h-2c-.551 0-1-.448-1-1v-31h1c1.654 0 3 1.346 3 3v7c0 1.352.678 2.543 1.707 3.268-1.038.917-1.707 2.242-1.707 3.732v9h52zm2-7h-52v-7c0-1.654 1.346-3 3-3h7 16v4c0 2.206 1.794 4 4 4 1.2 0 2.266-.542 3-1.382.734.84 1.8 1.382 3 1.382s2.266-.542 3-1.382c.734.84 1.8 1.382 3 1.382 2.206 0 4-1.794 4-4v-4h3c1.654 0 3 1.346 3 3z"/></g></g></svg>