<svg id="_x33_0" enable-background="new 0 0 62 62" height="512" viewBox="0 0 62 62" width="512" xmlns="http://www.w3.org/2000/svg"><g><g><g><path d="m54 13c0-1.1-.9-2-2-2-1.98 0-3.95-.38-5.79-1.11l-2.21-.89-1.41 1.41c-.38.38-.59.89-.59 1.42v3.17h-1c0-1.1-.9-2-2-2l.79-3.15c.14-.56.21-1.14.21-1.73 0-1.02-.22-2-.61-2.88.91-2.47 3.29-4.24 6.08-4.24h5.06c3.57 0 6.47 2.9 6.47 6.47 0 1.01-.23 2-.68 2.9l-1.32 2.63z" fill="#b27946"/></g><g><path d="m37 12.44c0-.86-.55-1.62-1.37-1.9l-1.63-.54-2 2-5-3-1.41 1.41c-.38.38-.59.89-.59 1.42v1.17h-2l-.79-3.15c-.14-.56-.21-1.14-.21-1.73 0-1.96.8-3.74 2.09-5.03 1.29-1.29 3.07-2.09 5.03-2.09h3.76c2.9 0 5.4 1.74 6.51 4.24.39.88.61 1.86.61 2.88 0 .59-.07 1.17-.21 1.73l-.79 3.15h-2z" fill="#b27946"/></g><g><path d="m18 17.39v-4.39c0-.55-.22-1.05-.59-1.41-.36-.37-.86-.59-1.41-.59-1.98 0-3.95-.38-5.79-1.11l-2.21-.89-1.41 1.41c-.38.38-.59.89-.59 1.42v5.56c0 1.13.28 2.22.8 3.18.52.97 1.26 1.81 2.2 2.43v3c-1.38.17-2.66.65-3.77 1.36-2.05-1.89-3.23-4.55-3.23-7.36v-9c0-2.76 1.12-5.26 2.93-7.07s4.31-2.93 7.07-2.93c5.52 0 10 4.48 10 10v2.27c-.6.35-1 .99-1 1.73 0 .55.22 1.05.59 1.41.12.13.26.23.41.32v3.27c0 2.49-.93 4.87-2.56 6.68l-.01.01c-1.16-.46-2.4-.69-3.67-.69h-.76v-3c1.87-1.25 3-3.35 3-5.61z" fill="#656d78"/></g><g><path d="m12 61h-8v-6c0-2.85.81-5.64 2.33-8.04.22.03.44.04.67.04h10.69c1.5 2.39 2.31 5.16 2.31 8v6z" fill="#969faa"/></g><g><path d="m7 37h-6v-1.94c0-3.21 1.67-6.07 4.23-7.7 1.11-.71 2.39-1.19 3.77-1.36l.11.21c.54 1.1 1.66 1.79 2.89 1.79s2.35-.69 2.89-1.79l.11-.21h.76c1.27 0 2.51.23 3.67.69.9.34 1.75.81 2.52 1.4-2.41 1.83-3.95 4.73-3.95 7.96v4.95h-11z" fill="#ff826e"/></g><g><path d="m43.59 49h11.41v3 9h-7-7v-9.41-.01c1.15-.5 2.08-1.43 2.58-2.58z" fill="#969faa"/></g><g><path d="m24 49h14v3 9h-7-7z" fill="#d3a06c"/></g><g><path d="m55 49h-11.41c.26-.61.41-1.29.41-2v-8h11v8z" fill="#b4dd7f"/></g><g><path d="m55 35h-11l-.05.01c-.36-3.43-2.45-6.37-5.42-7.88 1.58-.74 3.31-1.13 5.08-1.13h1.39l.11.21c.54 1.1 1.66 1.79 2.89 1.79s2.35-.69 2.89-1.79l.11-.21 1 .1c5.11.51 9 4.81 9 9.95v10.95h-6v-8z" fill="#b4dd7f"/></g><g><path d="m55 35v4h-11v-2.95c0-.35-.02-.7-.05-1.04l.05-.01z" fill="#a0d468"/></g><g><path d="m43.95 35.01c-.36-3.43-2.45-6.37-5.42-7.88-1.07-.54-2.26-.9-3.53-1.03l-1-.1-.11.21c-.54 1.1-1.66 1.79-2.89 1.79s-2.35-.69-2.89-1.79l-.11-.21-1 .1c-1.9.19-3.63.91-5.05 1.99-2.41 1.83-3.95 4.73-3.95 7.96v4.95h2c1.66 0 3 1.34 3 3h1v5h14v-2h6v-8-2.95c0-.35-.02-.7-.05-1.04z" fill="#fcd770"/></g><g><path d="m38 35v4h-14v-3.59c0-.14 0-.28.01-.41z" fill="#ffeaa7"/></g><g><path d="m7 41h11 2c1.66 0 3 1.34 3 3 0 .83-.34 1.58-.88 2.12s-1.29.88-2.12.88h-2.31-10.69c-.23 0-.45-.01-.67-.04-3-.33-5.33-2.88-5.33-5.96v-4h6z" fill="#f0d0b4"/></g><g><path d="m38 47h6c0 .71-.15 1.39-.41 2h-.01c-.5 1.15-1.43 2.08-2.58 2.58v.01c-.61.26-1.29.41-2 .41h-1v-3z" fill="#f0d0b4"/></g><g><path d="m55 47h6c0 2.76-2.24 5-5 5h-1v-3z" fill="#f0d0b4"/></g><g><path d="m54 13h1 1c1.1 0 2 .9 2 2 0 .55-.22 1.05-.59 1.41-.36.37-.86.59-1.41.59h-2z" fill="#f0d0b4"/></g><g><path d="m54 17v.39c0 1.13-.28 2.22-.8 3.18-.52.97-1.26 1.81-2.2 2.43v3l-.11.21c-.54 1.1-1.66 1.79-2.89 1.79s-2.35-.69-2.89-1.79l-.11-.21v-3c-1.87-1.25-3-3.35-3-5.61v-2.39-3.17c0-.53.21-1.04.59-1.42l1.41-1.41 2.21.89c1.84.73 3.81 1.11 5.79 1.11 1.1 0 2 .9 2 2z" fill="#f0d0b4"/></g><g><path d="m39 13c1.1 0 2 .9 2 2 0 .55-.22 1.05-.59 1.41-.36.37-.86.59-1.41.59h-2v-4z" fill="#f0d0b4"/></g><g><path d="m37 17v.39c0 2.26-1.13 4.36-3 5.61v3l-.11.21c-.54 1.1-1.66 1.79-2.89 1.79s-2.35-.69-2.89-1.79l-.11-.21v-3c-.94-.62-1.68-1.46-2.2-2.43-.52-.96-.8-2.05-.8-3.18v-.39-4-1.17c0-.53.21-1.04.59-1.42l1.41-1.41 5 3 2-2 1.63.54c.82.28 1.37 1.04 1.37 1.9v.56z" fill="#f0d0b4"/></g><g><path d="m25 13v4h-2c-.36 0-.71-.1-1-.27-.15-.09-.29-.19-.41-.32-.37-.36-.59-.86-.59-1.41 0-.74.4-1.38 1-1.73.29-.17.64-.27 1-.27z" fill="#f0d0b4"/></g><g><path d="m18 13v4.39c0 2.26-1.13 4.36-3 5.61v3l-.11.21c-.54 1.1-1.66 1.79-2.89 1.79s-2.35-.69-2.89-1.79l-.11-.21v-3c-.94-.62-1.68-1.46-2.2-2.43-.52-.96-.8-2.05-.8-3.18v-5.56c0-.53.21-1.04.59-1.42l1.41-1.41 2.21.89c1.84.73 3.81 1.11 5.79 1.11.55 0 1.05.22 1.41.59.37.36.59.86.59 1.41z" fill="#f0d0b4"/></g></g><g><path d="m33.414 19 .293-.293-1.414-1.414-.293.293c-.526.526-1.474.526-2 0l-.293-.293-1.414 1.414.293.293c.645.645 1.502 1 2.414 1s1.77-.355 2.414-1z"/><path d="m49 17.586c-.526.526-1.474.526-2 0l-.293-.293-1.414 1.414.293.293c.645.645 1.502 1 2.414 1s1.77-.355 2.414-1l.293-.293-1.414-1.414z"/><path d="m52.095 25.104-.095-.009v-1.583c1.728-1.337 2.795-3.336 2.965-5.512h1.035c1.654 0 3-1.346 3-3 0-1.453-1.038-2.666-2.412-2.941l.623-1.246c.517-1.032.789-2.187.789-3.341 0-4.12-3.352-7.472-7.472-7.472h-5.056c-2.479 0-4.751 1.253-6.127 3.23-1.484-1.958-3.827-3.23-6.468-3.23h-3.754c-3.534 0-6.54 2.272-7.654 5.43-1.916-3.243-5.438-5.43-9.469-5.43-6.065 0-11 4.935-11 11v9c0 2.666.98 5.242 2.718 7.235-2.277 1.871-3.718 4.7-3.718 7.827v5.938c0 3.091 2.016 5.716 4.8 6.641-1.177 2.269-1.8 4.785-1.8 7.359v7h18v-7c0-2.438-.563-4.824-1.623-7h.623c1.2 0 2.266-.542 3-1.382v15.382h16v-9c.341 0 .674-.035 1-.09v9.09h16v-9c3.309 0 6-2.691 6-6v-10.95c0-5.675-4.258-10.381-9.905-10.946zm.905-7.709c0 1.922-.955 3.707-2.555 4.773l-.445.297v3.299c-.381.762-1.147 1.236-2 1.236s-1.619-.474-2-1.236v-3.299l-.445-.297c-1.6-1.066-2.555-2.851-2.555-4.773v-5.566c0-.267.104-.519.293-.708l.948-.948 1.602.641c1.967.787 4.038 1.186 6.157 1.186.551 0 1 .449 1 1zm-24.445 4.773c-1.6-1.066-2.555-2.851-2.555-4.773v-5.566c0-.267.104-.519.293-.708l.862-.862 5 3 2.115-2.115 1.046.349c.409.136.684.517.684.948v4.953c0 1.922-.955 3.707-2.555 4.773l-.445.298v3.299c-.381.762-1.147 1.236-2 1.236s-1.619-.474-2-1.236v-3.299zm6.445 1.344c1.728-1.337 2.795-3.336 2.965-5.512h1.035c.771 0 1.468-.301 2-.78v.175c0 2.409 1.112 4.657 3 6.118v1.487h-.395c-1.724 0-3.453.371-5.043 1.045-1.072-.486-2.234-.817-3.468-.941l-.094-.009zm22-8.512c0 .551-.449 1-1 1h-1v-2h1c.551 0 1 .449 1 1zm-16.525-9.723c.867-1.969 2.826-3.277 4.997-3.277h5.056c3.017 0 5.472 2.455 5.472 5.472 0 .845-.2 1.691-.578 2.447l-.814 1.628c-.513-.918-1.483-1.547-2.608-1.547-1.863 0-3.685-.351-5.414-1.043l-2.827-1.13-1.88 1.88c-.567.566-.879 1.32-.879 2.122v.952c-.233-.21-.495-.388-.785-.518l.542-2.169c.161-.643.243-1.306.243-1.971 0-1.002-.191-1.959-.525-2.846zm-.475 9.723c0 .551-.449 1-1 1h-1v-2h1c.551 0 1 .449 1 1zm-10.877-13h3.754c3.376 0 6.123 2.747 6.123 6.123 0 .501-.062 1-.183 1.485l-.598 2.392h-.254c-.164-1.106-.931-2.043-2.017-2.405l-2.218-.739-1.885 1.885-5-3-1.966 1.966c-.567.566-.879 1.32-.879 2.122v.171h-.219l-.598-2.393c-.121-.483-.183-.983-.183-1.484 0-3.376 2.747-6.123 6.123-6.123zm-6.123 12h1v2h-1c-.551 0-1-.449-1-1s.449-1 1-1zm0 6v-2h1.035c.17 2.176 1.237 4.175 2.965 5.512v1.583l-.095.009c-1.834.183-3.517.809-4.96 1.758-.306-.201-.619-.388-.942-.558 1.29-1.84 1.997-4.032 1.997-6.304zm-20 0v-9c0-4.962 4.038-9 9-9s9 4.038 9 9v1.78c-.609.549-1 1.337-1 2.22s.391 1.67 1 2.22v2.78c0 2.011-.674 3.945-1.9 5.521-1.003-.313-2.046-.495-3.1-.518v-1.49c1.888-1.46 3-3.709 3-6.118v-4.395c0-1.654-1.346-3-3-3-1.863 0-3.685-.351-5.414-1.043l-2.827-1.13-1.88 1.88c-.567.566-.879 1.32-.879 2.122v5.566c0 2.409 1.112 4.657 3 6.118v1.644c-.922.198-1.791.525-2.597.953-1.531-1.656-2.403-3.841-2.403-6.11zm6.555 2.168c-1.6-1.066-2.555-2.851-2.555-4.773v-5.566c0-.267.104-.519.293-.708l.948-.948 1.602.641c1.967.787 4.038 1.186 6.157 1.186.551 0 1 .449 1 1v4.395c0 1.922-.955 3.707-2.555 4.773l-.445.297v3.299c-.381.762-1.147 1.236-2 1.236s-1.619-.474-2-1.236v-3.299zm-7.555 12.894c0-3.871 2.741-7.18 6.474-7.958.779 1.179 2.086 1.896 3.526 1.896 1.481 0 2.818-.761 3.588-2h.17c1.586 0 3.157.424 4.535 1.199-1.574 1.544-2.682 3.551-3.103 5.801h-9.23c-.095-1.021-.518-1.973-1.253-2.707l-1.414 1.414c.449.449.707 1.072.707 1.707v1.586h-4zm15.002.938c0 .017-.002.033-.002.05v3.95h-9v-4zm1.998 24h-6v-7.382l1.447-.724-.895-1.789-1.552.777-1.553-.776-.895 1.789 1.448.723v7.382h-6v-5c0-2.469.656-4.876 1.888-7.006.038.001.074.006.112.006h10.115c1.23 2.129 1.885 4.534 1.885 7zm1-14h-13c-2.757 0-5-2.243-5-5v-3h4v2.382l-1.447.724.895 1.789 1.788-.895h12.764c1.103 0 2 .897 2 2s-.897 2-2 2zm17 14h-5v-6.382l1.447-.724-.895-1.789-1.552.777-1.553-.776-.895 1.789 1.448.723v6.382h-5v-10h12zm0-12h-12v-8h12zm0-10h-12v-2h12zm.707-6.707-1.414 1.414c.351.351.58.808.665 1.293h-11.852c.133-.741.371-1.063.601-1.293l-1.414-1.414c-.918.918-1.293 2.112-1.293 4.121v5.968c-.734-.84-1.8-1.382-3-1.382h-1v-3.95c0-4.643 3.484-8.493 8.104-8.955l.344-.034c.775 1.203 2.095 1.939 3.552 1.939s2.777-.736 3.552-1.94l.344.034c4.62.463 8.104 4.313 8.104 8.956v9.95h-4v-11.586c0-1.179-.459-2.288-1.293-3.121zm1.293 19.707v-3h3.858c-.447 1.72-2 3-3.858 3zm15 9h-5v-6.382l1.447-.724-.895-1.789-1.552.777-1.553-.776-.895 1.789 1.448.723v6.382h-5v-7.812c.907-.526 1.662-1.282 2.188-2.188h9.812zm0-12h-9.09c.055-.326.09-.659.09-1v-7h9zm0-10h-9v-1.95c0-.017-.002-.033-.002-.05h9.002zm2 13v-3h3.858c-.447 1.72-2 3-3.858 3zm4-5h-4v-11.586c0-1.179-.459-2.288-1.293-3.121l-1.414 1.414c.351.351.58.808.665 1.293h-9.148c-.499-2.667-1.955-4.998-4.019-6.613.919-.245 1.867-.387 2.814-.387h.807c.77 1.239 2.107 2 3.588 2 1.457 0 2.777-.736 3.552-1.94l.344.034c4.62.463 8.104 4.313 8.104 8.956z"/><path d="m14.414 19 .293-.293-1.414-1.414-.293.293c-.526.526-1.474.526-2 0l-.293-.293-1.414 1.414.293.293c.645.645 1.502 1 2.414 1s1.77-.355 2.414-1z"/></g></g></svg>