
<svg id="Layer_5" enable-background="new 0 0 62 62.433" height="512" viewBox="0 0 62 62.433" width="512" xmlns="http://www.w3.org/2000/svg"><g><g><g><path d="m15.19 38.933c.35 1.35 1.16 2.52 2.25 3.33-.78.39-1.49.9-2.1 1.51-1.45 1.45-2.34 3.45-2.34 5.66s.9 4.21 2.34 5.66c1.45 1.44 3.45 2.34 5.66 2.34s4.21-.9 5.66-2.34c1.44-1.45 2.34-3.45 2.34-5.66s-.9-4.21-2.35-5.65c-.12-.13-.24-.24-.36-.35h2.71 2.39c1.03 1.76 1.61 3.81 1.61 6 0 .68-.06 1.35-.17 2-.24 1.44-.73 2.79-1.43 4-.93 1.6-2.22 2.97-3.76 4h-.01c-1.89 1.27-4.17 2-6.63 2-6.63 0-12-5.37-12-12 0-2.45.74-4.73 2-6.63 1.02-1.54 2.39-2.83 4-3.76.06-.04.13-.07.19-.11z" fill="#969faa"/></g><g><path d="m43 56.433c0 .83-.34 1.58-.88 2.12s-1.29.88-2.12.88h-12.36c1.54-1.03 2.83-2.4 3.76-4h7.6 1 2c.55 0 1 .45 1 1z" fill="#ccd1d9"/></g><g><path d="m22.41 48.023c.37.36.59.86.59 1.41s-.22 1.05-.59 1.41c-.36.37-.86.59-1.41.59s-1.05-.22-1.41-.59c-.37-.36-.59-.86-.59-1.41s.22-1.05.59-1.41c.36-.37.86-.59 1.41-.59s1.05.22 1.41.59z" fill="#ccd1d9"/></g><g><path d="m15 37.433v1.61c-1.61.93-2.98 2.22-4 3.76v-8.37c0-.55-.45-1-1-1h-7c-.55 0-1.05-.22-1.41-.59-.37-.36-.59-.86-.59-1.41 0-1.1.9-2 2-2h8c2.21 0 4 1.79 4 4z" fill="#ccd1d9"/></g><g><path d="m39 51.613c1.17.4 2 1.51 2 2.82 0 .55-.45 1-1 1h-1-7.6c.7-1.21 1.19-2.56 1.43-4h5.17c.35 0 .69.06 1 .18z" fill="#b27946"/></g><g><path d="m38 51.433h-5.17c.11-.65.17-1.32.17-2 0-2.19-.58-4.24-1.61-6h.52c1.57 0 2.86-1.16 3.06-2.67 2.35.82 4.03 3.05 4.03 5.67v5.17.01c-.31-.12-.65-.18-1-.18z" fill="#d3a06c"/></g><g><path d="m15 33.433v-3c0-1.12.61-2.1 1.52-2.61.43-.25.94-.39 1.48-.39 1.28 0 2.51.27 3.61.76l2.75 1.88c1.63 1.62 2.64 3.88 2.64 6.36v1h2v6h-2.71-5.29c-1.33 0-2.56-.44-3.56-1.17-1.09-.81-1.9-1.98-2.25-3.33-.12-.48-.19-.98-.19-1.5z" fill="#fcd770"/></g><g><path d="m31.41 2.023c.37.36.59.86.59 1.41 0 3.31-2.69 6-6 6h-7c-1.66 0-3 1.34-3 3v1h-.17c-2.11 0-3.83 1.72-3.83 3.83 0 1.35.71 2.59 1.86 3.29l3.14 1.88c0 1.65-.13 3.29-.4 4.91l-2.67-.62c-2.91-.67-5.39-2.3-7.14-4.51-1.76-2.2-2.79-4.99-2.79-7.97 0-7.07 5.74-12.81 12.81-12.81h13.19c.55 0 1.05.22 1.41.59z" fill="#e6e9ed"/></g><g><path d="m16.6 27.343c.27-1.62.4-3.26.4-4.91l-3.14-1.88c-1.15-.7-1.86-1.94-1.86-3.29 0-2.11 1.72-3.83 3.83-3.83h.17v-1c0-1.66 1.34-3 3-3h7 2c1.1 0 2 .9 2 2l-.01 2.99c0 1.29.52 2.53 1.44 3.44.36.37.57.86.57 1.38 0 .73-.41 1.4-1.07 1.72l-.93.47h-6c0 2.21 1.79 4 4 4h2v.49c0 .97-.39 1.85-1.03 2.48-.63.64-1.51 1.03-2.48 1.03-.33 0-.65-.04-.96-.13l-3.92-1.12v.01c-1.1-.49-2.33-.76-3.61-.76-.54 0-1.05.14-1.48.39.03-.16.06-.32.08-.48z" fill="#f0d0b4"/></g><g><path d="m34.1 36.333c.56.56.9 1.34.9 2.19v1.82c0 .14-.01.28-.03.42-.2 1.51-1.49 2.67-3.06 2.67h-.52-2.39v-6l.15-.29c.52-1.05 1.59-1.71 2.76-1.71.85 0 1.63.34 2.19.9z" fill="#f0d0b4"/></g><g><path d="m39.41 10.843c-.37.38-.88.59-1.41.59s-1.04-.21-1.41-.59c-.38-.37-.59-.88-.59-1.41s.21-1.04.59-1.41l6.41-6.59 6.41 6.59c.38.37.59.88.59 1.41s-.21 1.04-.59 1.41c-.37.38-.88.59-1.41.59s-1.04-.21-1.41-.59l-1.59-1.54v8.13h-4v-8.13z" fill="#ff826e"/></g><g><path d="m60.41 22.023c.38.37.59.88.59 1.41s-.21 1.04-.59 1.41l-6.41 6.59-6.41-6.59c-.38-.37-.59-.88-.59-1.41s.21-1.04.59-1.41c.37-.38.88-.59 1.41-.59s1.04.21 1.41.59l1.59 1.54v-8.13h4v8.13l1.59-1.54c.37-.38.88-.59 1.41-.59s1.04.21 1.41.59z" fill="#ff826e"/></g><g><circle cx="43" cy="38.433" fill="#ff826e" r="2"/></g><g><circle cx="51" cy="38.433" fill="#ff826e" r="2"/></g><g><circle cx="59" cy="38.433" fill="#ff826e" r="2"/></g><g><path d="m30 21.433v4h-2c-2.21 0-4-1.79-4-4z" fill="#ff826e"/></g></g><g><path d="m62 23.433c0-.801-.312-1.555-.879-2.121-1.096-1.097-2.995-1.132-4.121-.116v-6.763h-6v6.764c-1.143-1.025-3.028-.979-4.121.115-.567.566-.879 1.32-.879 2.121s.312 1.555.87 2.112l7.13 7.321 7.121-7.312c.567-.566.879-1.32.879-2.121zm-2.302.716-5.698 5.851-5.707-5.86c-.191-.192-.293-.436-.293-.707s.102-.515.293-.707c.192-.191.436-.293.707-.293s.515.102.716.302l3.284 3.203v-9.505h2v9.505l3.293-3.212c.384-.383 1.03-.383 1.414 0 .191.192.293.436.293.707s-.102.515-.302.716z"/><path d="m40 11.67v6.763h6v-6.764c1.143 1.026 3.028.979 4.121-.115.567-.566.879-1.32.879-2.121s-.312-1.555-.87-2.112l-7.13-7.321-7.121 7.312c-.567.566-.879 1.32-.879 2.121s.312 1.555.879 2.121c1.096 1.096 2.994 1.132 4.121.116zm-2.698-2.953 5.698-5.851 5.707 5.86c.191.192.293.436.293.707s-.102.515-.293.707c-.384.383-1.021.392-1.423-.009l-3.284-3.203v9.505h-2v-9.505l-3.293 3.212c-.384.383-1.03.383-1.414 0-.191-.192-.293-.436-.293-.707s.102-.515.302-.716z"/><path d="m24 14.433c.551 0 1 .449 1 1h2c0-1.654-1.346-3-3-3s-3 1.346-3 3h2c0-.551.449-1 1-1z"/><path d="m15 16.433h2v2h-2z"/><path d="m42 54.433c0-1.474-.81-2.75-2-3.444v-4.556c0-2.72-1.585-5.156-4-6.306v-1.604c0-2.255-1.835-4.09-4.09-4.09-1.459 0-2.781.759-3.516 2h-.394c0-2.269-.768-4.357-2.047-6.037.178.021.356.037.536.037 2.487 0 4.511-2.024 4.511-4.511v-3.871l.378-.189c1-.5 1.622-1.505 1.622-2.624 0-.777-.316-1.536-.867-2.082-.735-.729-1.14-1.702-1.139-2.737l.002-2.984c0-.802-.312-1.555-.878-2.123-.046-.046-.099-.079-.147-.121 1.828-1.264 3.029-3.372 3.029-5.758 0-1.654-1.346-3-3-3h-13.19c-7.615 0-13.81 6.195-13.81 13.81 0 6.468 4.402 12.002 10.705 13.457l1.169.27c-.362.458-.633.99-.767 1.578-.856-.686-1.927-1.114-3.107-1.114h-8c-1.654 0-3 1.346-3 3s1.346 3 3 3h7v8.087c-1.28 2.038-2 4.423-2 6.913 0 7.168 5.832 13 13 13 2.535 0 4.895-.74 6.897-2h12.103c2.206 0 4-1.794 4-4 0-1.104-.897-2.001-2-2.001zm-8.363-2h4.363c1.103 0 2 .897 2 2h-1-6.003c.268-.641.476-1.312.64-2zm4.363-6v4h-4.051c.025-.331.051-.662.051-1 0-1.777-.374-3.527-1.071-5.144 1.157-.3 2.108-1.089 2.631-2.138 1.486.89 2.44 2.501 2.44 4.282zm-6.09-10c1.153 0 2.09.938 2.09 2.09v1.819c0 1.153-.938 2.09-2.09 2.09h-1.91v-4.764l.041-.081c.355-.711 1.072-1.154 1.869-1.154zm-10.91 14c-.551 0-1-.449-1-1s.449-1 1-1 1 .449 1 1-.449 1-1 1zm1.285-3.699c-.093-.044-.188-.082-.285-.116v-2.184h2.586zm-2.285-.117c-.098.035-.193.072-.285.116l-2.899-2.899c.192-.143.394-.274.603-.398.777.465 1.649.782 2.581.917zm-4.6-1.37 2.901 2.901c-.044.093-.082.188-.116.285h-4.113c.166-1.174.634-2.259 1.328-3.186zm2.784 5.186c.035.098.072.193.116.285l-2.899 2.899c-.686-.915-1.151-2.001-1.322-3.184zm1.531 1.7c.093.044.188.081.285.116v4.104c-1.183-.17-2.269-.636-3.184-1.322zm2.285.116c.098-.035.193-.072.285-.116l2.899 2.899c-.915.686-2.001 1.151-3.184 1.322zm4.598 1.368-2.899-2.899c.044-.093.082-.188.116-.285h4.104c-.169 1.183-.635 2.269-1.321 3.184zm-2.782-5.184c-.035-.098-.072-.193-.116-.285l2.905-2.905c.698.934 1.147 2.032 1.315 3.19zm-5.816-18v2c1.103 0 2 .897 2 2v2.586l-1.707 1.707 1.414 1.414 1.707-1.707h6.586v4h-7c-2.757 0-5-2.243-5-5v-4-3c0-1.103.897-2 2-2 4.411 0 8 3.589 8 8h-4v-2c0-2.205-1.794-4-4-4zm10-6c-1.304 0-2.416-.836-2.829-2h3.829v2zm-.004-14c.267 0 .518.104.707.293s.293.441.293.708l-.002 2.984c0 1.551.63 3.066 1.731 4.159.174.173.275.414.275.661 0 .356-.198.676-.516.834l-.72.36h-6.764v1c0 2.757 2.243 5 5 5h.947c-.237 1.14-1.249 2-2.458 2-.232 0-.462-.032-.686-.096l-3.883-1.102c-1.205-.515-2.529-.802-3.92-.802-.09 0-.175.021-.264.027.174-1.335.264-2.683.264-4.026v-.566l-3.626-2.176c-.848-.508-1.374-1.438-1.374-2.427 0-1.561 1.27-2.831 2.831-2.831h1.169v-2c0-1.103.897-2 2-2zm-22.996 3.81c0-6.512 5.298-11.81 11.81-11.81h13.19c.551 0 1 .449 1 1 0 2.757-2.243 5-5 5h-7c-2.206 0-4 1.794-4 4v.071c-2.27.395-4 2.379-4 4.76 0 1.688.899 3.275 2.345 4.142l2.649 1.59c-.02 1.043-.117 2.084-.248 3.121l-1.592-.367c-5.39-1.244-9.154-5.976-9.154-11.507zm-2 18.19c-.551 0-1-.449-1-1s.449-1 1-1h8c1.654 0 3 1.346 3 3v4 1.046c-.724.463-1.392.993-2 1.578v-5.624c0-1.103-.897-2-2-2zm7 17c0-3.604 1.778-6.944 4.689-8.991.29.605.662 1.161 1.106 1.655-2.367 1.672-3.795 4.37-3.795 7.336 0 4.962 4.038 9 9 9s9-4.038 9-9c0-1.799-.55-3.532-1.532-5h2.307c.789 1.543 1.225 3.253 1.225 5 0 6.065-4.935 11-11 11s-11-4.934-11-11zm30 9h-9.641c.589-.612 1.117-1.282 1.578-2h7.063 1 2c0 1.103-.897 2-2 2z"/><path d="m43 35.433c-1.654 0-3 1.346-3 3s1.346 3 3 3 3-1.346 3-3-1.346-3-3-3zm0 4c-.551 0-1-.449-1-1s.449-1 1-1 1 .449 1 1-.449 1-1 1z"/><path d="m51 35.433c-1.654 0-3 1.346-3 3s1.346 3 3 3 3-1.346 3-3-1.346-3-3-3zm0 4c-.551 0-1-.449-1-1s.449-1 1-1 1 .449 1 1-.449 1-1 1z"/><path d="m59 35.433c-1.654 0-3 1.346-3 3s1.346 3 3 3 3-1.346 3-3-1.346-3-3-3zm0 4c-.551 0-1-.449-1-1s.449-1 1-1 1 .449 1 1-.449 1-1 1z"/></g></g></svg>