
<svg id="Layer_5" enable-background="new 0 0 62 62" height="512" viewBox="0 0 62 62" width="512" xmlns="http://www.w3.org/2000/svg"><g><g><g><path d="m45 1c8.84 0 16 7.16 16 16s-7.16 16-16 16c-1.41 0-2.76-.18-4.07-.52-.23-.85-1.01-1.48-1.93-1.48h-6v-20c0-1.16-.49-2.2-1.28-2.93 2.87-4.26 7.75-7.07 13.28-7.07z" fill="#4fc1e9"/></g><g><path d="m10.42 43h20.58c-.55 0-1.05.22-1.41.59-.37.36-.59.86-.59 1.41 0 1.1.9 2 2 2h2c0 2.21-1.79 4-4 4h-18v-5c0-1.04-.2-2.05-.59-2.99z" fill="#969faa"/></g><g><path d="m29 41c0 1.1.9 2 2 2h-20.58l-.01.01c-.53-1.34-1.43-2.52-2.61-3.41l-.8-.6 2.97-2.97c.69-.69 1.21-1.5 1.55-2.39 1.84 2.06 4.51 3.36 7.48 3.36 5.52 0 10-4.48 10-10s-4.48-10-10-10-10 4.48-10 10c0 .72.08 1.43.22 2.11-.31.1-.6.27-.84.51l-3.38 3.37v-21.99c0-2.21 1.79-4 4-4h6c0 1.1.45 2.1 1.17 2.83.73.72 1.73 1.17 2.83 1.17 2.21 0 4-1.79 4-4h6c1.05 0 2 .41 2.72 1.07.79.73 1.28 1.77 1.28 2.93v20 4h-2c-.55 0-1.05.22-1.41.59-.37.36-.59.86-.59 1.41 0 1.1.9 2 2 2-.55 0-1.05.22-1.41.59-.37.36-.59.86-.59 1.41z" fill="#69d6f4"/></g><g><path d="m19 17c5.52 0 10 4.48 10 10s-4.48 10-10 10c-2.97 0-5.64-1.3-7.48-3.36.32-.8.48-1.65.48-2.52 0-.58-.24-1.12-.62-1.5s-.92-.62-1.5-.62c-.22 0-.45.04-.66.11-.14-.68-.22-1.39-.22-2.11 0-5.52 4.48-10 10-10z" fill="#ff826e"/></g><g><path d="m35 43c1.1 0 2 .9 2 2 0 .55-.22 1.05-.59 1.41-.36.37-.86.59-1.41.59h-2-2c-1.1 0-2-.9-2-2 0-.55.22-1.05.59-1.41.36-.37.86-.59 1.41-.59h1z" fill="#f0d0b4"/></g><g><path d="m35 39c1.1 0 2 .9 2 2 0 .55-.22 1.05-.59 1.41-.36.37-.86.59-1.41.59h-3-1c-1.1 0-2-.9-2-2 0-.55.22-1.05.59-1.41.36-.37.86-.59 1.41-.59z" fill="#f0d0b4"/></g><g><path d="m35 35c1.1 0 2 .9 2 2 0 .55-.22 1.05-.59 1.41-.36.37-.86.59-1.41.59h-4c-1.1 0-2-.9-2-2 0-.55.22-1.05.59-1.41.36-.37.86-.59 1.41-.59h2z" fill="#f0d0b4"/></g><g><path d="m40.93 32.48c.05.16.07.34.07.52 0 .55-.22 1.05-.59 1.41-.36.37-.86.59-1.41.59h-4-2v-4h6c.92 0 1.7.63 1.93 1.48z" fill="#f0d0b4"/></g><g><path d="m29 51-2 4v6h-20v-6l-4.72-8.66c-.84-1.53-1.28-3.26-1.28-5.01 0-2.77 1.1-5.43 3.06-7.4l.94-.93v-.01l3.38-3.37c.24-.24.53-.41.84-.51.21-.07.44-.11.66-.11.58 0 1.12.24 1.5.62s.62.92.62 1.5c0 .87-.16 1.72-.48 2.52-.34.89-.86 1.7-1.55 2.39l-2.97 2.97.8.6c1.18.89 2.08 2.07 2.61 3.41.39.94.59 1.95.59 2.99v5z" fill="#f0d0b4"/></g><g><path d="m15 7h8c0 2.21-1.79 4-4 4-1.1 0-2.1-.45-2.83-1.17-.72-.73-1.17-1.73-1.17-2.83z" fill="#4fc1e9"/></g></g><g><circle cx="9" cy="11" r="1"/><path d="m16 46h6v2h-6z"/><path d="m13.979 28.05 1.414 1.414c.945-.944 2.201-1.464 3.536-1.464 1.336 0 2.592.52 3.536 1.464l1.414-1.414c-1.322-1.322-3.08-2.05-4.95-2.05s-3.627.728-4.95 2.05z"/><path d="m25.293 26.636 1.414-1.414c-4.289-4.289-11.268-4.289-15.557 0l1.414 1.414c3.51-3.509 9.219-3.509 12.729 0z"/><path d="m16.808 30.879 1.414 1.414c.38-.378 1.037-.376 1.413 0l1.416-1.413c-1.132-1.134-3.11-1.135-4.243-.001z"/><path d="m45 0c-5.325 0-10.303 2.483-13.514 6.688-.736-.426-1.577-.688-2.486-.688h-20c-2.757 0-5 2.243-5 5v21.585l-.643.642c-2.165 2.166-3.357 5.044-3.357 8.106 0 1.911.484 3.809 1.399 5.488l4.601 8.434v6.745h22v-6.764l1.639-3.276c2.124-.272 3.831-1.885 4.255-3.959h1.106c1.654 0 3-1.346 3-3 0-.771-.301-1.468-.78-2 .48-.532.78-1.229.78-2s-.301-1.468-.78-2c.48-.532.78-1.229.78-2 0-.352-.072-.686-.184-1h1.184c1.407 0 2.582-.977 2.905-2.286 1.017.186 2.053.285 3.095.285 9.374 0 17-7.626 17-17s-7.626-17-17-17zm0 2c2.232 0 4.254 2.387 5.546 6h-11.092c1.292-3.613 3.314-6 5.546-6zm6.159 8c.462 1.821.746 3.858.816 6h-13.951c.07-2.142.354-4.179.816-6zm-15.133 6h-2.026v-5c0-.342-.035-.677-.101-1h2.879c-.43 1.84-.689 3.861-.752 6zm-2.026 2h2.024c.063 2.095.323 4.123.762 6h-2.786zm4.023 0h13.952c-.07 2.142-.354 4.179-.816 6h-12.325c-.471-1.849-.743-3.886-.811-6zm15.951 0h5.975c-.143 2.155-.732 4.188-1.693 6h-5.034c.43-1.84.689-3.861.752-6zm0-2c-.063-2.139-.322-4.16-.752-6h5.034c.961 1.812 1.55 3.845 1.693 6zm2.998-8h-4.308c-.658-2.023-1.528-3.762-2.566-5.089 2.759 1.002 5.137 2.785 6.874 5.089zm-17.057-5.107c-1.044 1.33-1.918 3.075-2.579 5.107h-4.333c1.78-2.369 4.19-4.126 6.912-5.107zm-18.099 5.107c-.414 1.161-1.514 2-2.816 2s-2.402-.839-2.816-2zm-15.816 3c0-1.654 1.346-3 3-3h5.101c.465 2.279 2.484 4 4.899 4s4.434-1.721 4.899-4h5.101c1.654 0 3 1.346 3 3v23h-1c-1.654 0-3 1.346-3 3 0 .771.301 1.468.78 2-.48.532-.78 1.229-.78 2 0 .352.072.686.184 1h-17.13c-.596-1.201-1.455-2.27-2.532-3.107l2.15-2.151c.438-.438.812-.923 1.132-1.437 1.987 1.721 4.537 2.695 7.196 2.695 6.065 0 11-4.935 11-11s-4.935-11-11-11-11 4.935-11 11c0 .518.05 1.034.122 1.546-.16.109-.312.23-.45.368l-1.672 1.672zm30 30c0 .551-.448 1-1 1h-3-1c-.552 0-1-.449-1-1s.448-1 1-1h4c.552 0 1 .449 1 1zm-25.94-12.982c-.038-.338-.06-.677-.06-1.018 0-4.962 4.037-9 9-9s9 4.038 9 9-4.037 9-9 9c-2.377 0-4.647-.953-6.327-2.617.214-.725.327-1.485.327-2.262 0-1.659-1.305-3.007-2.94-3.103zm15.94 26.746v5.236h-18v-5.255l-4.845-8.882c-.756-1.386-1.155-2.953-1.155-4.53 0-2.527.984-4.904 2.771-6.691l4.314-4.313c.21-.209.499-.329.794-.329.618 0 1.121.503 1.121 1.121 0 1.59-.619 3.084-1.742 4.207l-3.78 3.78 1.722 1.292c1.753 1.315 2.8 3.409 2.8 5.6v6h17.382zm3-4.764h-17v-4c0-.678-.08-1.349-.23-2h16.414c-.112.314-.184.648-.184 1 0 1.654 1.346 3 3 3h.816c-.414 1.161-1.514 2-2.816 2zm6-4h-4c-.552 0-1-.449-1-1s.448-1 1-1h1 3c.552 0 1 .449 1 1s-.448 1-1 1zm1-9c0 .551-.448 1-1 1h-4c-.552 0-1-.449-1-1s.448-1 1-1h2 2c.552 0 1 .449 1 1zm3-3h-4-1v-2h5c.552 0 1 .449 1 1s-.448 1-1 1zm2.646-2.384c-.503-.956-1.494-1.616-2.646-1.616h-5v-4h3.333c.281.866.602 1.688.965 2.451l1.807-.858c-.238-.501-.451-1.039-.651-1.593h11.092c-1.292 3.613-3.314 6-5.546 6-1.134 0-2.258-.134-3.354-.384zm8.452-.527c1.038-1.327 1.908-3.066 2.566-5.089h4.308c-1.737 2.304-4.115 4.087-6.874 5.089z"/></g></g></svg>